<?xml version="1.0" encoding="UTF-8" standalone="no"?>
<!-- Created with Inkscape (http://www.inkscape.org/) -->

<svg
   xmlns:dc="http://purl.org/dc/elements/1.1/"
   xmlns:cc="http://creativecommons.org/ns#"
   xmlns:rdf="http://www.w3.org/1999/02/22-rdf-syntax-ns#"
   xmlns:svg="http://www.w3.org/2000/svg"
   xmlns="http://www.w3.org/2000/svg"
   xmlns:sodipodi="http://sodipodi.sourceforge.net/DTD/sodipodi-0.dtd"
   xmlns:inkscape="http://www.inkscape.org/namespaces/inkscape"
   width="152.94"
   height="152.94"
   id="svg2"
   inkscape:label="Pozadí"
   version="1.1"
   inkscape:version="0.48.4 r9939"
   sodipodi:docname="cvut-logo.svg"
   inkscape:export-filename="/home/churchyard/RepRap/3dprintfit.github.com/images/cvut-logo.png"
   inkscape:export-xdpi="21.184778"
   inkscape:export-ydpi="21.184778">
  <defs
     id="defs11194" />
  <sodipodi:namedview
     id="base"
     pagecolor="#ffffff"
     bordercolor="#666666"
     borderopacity="1.0"
     inkscape:pageopacity="0.0"
     inkscape:pageshadow="2"
     inkscape:zoom="0.98994949"
     inkscape:cx="0.51178589"
     inkscape:cy="53.877578"
     inkscape:document-units="px"
     inkscape:current-layer="layer1"
     showgrid="false"
     fit-margin-top="0"
     fit-margin-left="0"
     fit-margin-right="0"
     fit-margin-bottom="0"
     inkscape:window-width="1616"
     inkscape:window-height="1026"
     inkscape:window-x="64"
     inkscape:window-y="0"
     inkscape:window-maximized="1" />
  <metadata
     id="metadata11197">
    <rdf:RDF>
      <cc:Work
         rdf:about="">
        <dc:format>image/svg+xml</dc:format>
        <dc:type
           rdf:resource="http://purl.org/dc/dcmitype/StillImage" />
        <dc:title></dc:title>
      </cc:Work>
    </rdf:RDF>
  </metadata>
  <g
     inkscape:label="Vrstva 1"
     inkscape:groupmode="layer"
     id="layer1"
     transform="translate(-298.52895,-437.1336)">
    <path
       d="m 298.52895,570.55962 7.79387,-6.362 9.53425,-39.78137 5.11625,-2.68125 6.5905,-27.10525 -1.92325,-9.88613 c -1.4765,-0.28275 -3.25912,-1.03112 -4.81787,-1.89287"
       style="fill:#1f1917;fill-opacity:1;fill-rule:evenodd;stroke:none;opacity:0.2"
       id="path10442"
       inkscape:connector-curvature="0" />
    <path
       d="m 331.72682,502.76312 c -0.25437,-0.20025 -0.5095,-0.4005 -0.76387,-0.60025 1.40212,-2.02687 7.67262,-6.086 10.42262,-0.65487 1.43225,2.82975 0.5995,6.3255 1.2005,9.44012 0.8925,4.6265 4.23775,5.23875 8.29413,1.96438 5.92475,-6.0105 12.4115,-10.55375 18.35475,-13.197 -0.10138,7.73187 2.64962,12.72287 8.71087,15.6345 -1.12437,1.33862 -3.87187,3.36112 -6.4595,3.652 3.0055,-7.33675 -6.727,-3.65812 -9.6385,-2.45162 -1.3755,0.56987 -3.27262,1.50699 -4.60025,2.18024 -1.31212,0.69838 -2.39175,1.59875 -2.72837,3.00113 -0.742,3.088 -1.27838,4.7205 -4.49863,4.96462 3.24213,-3.459 -1.09062,-5.38412 -4.37875,-4.72537 -2.74887,0.55062 -5.58675,-0.0272 -6.93,-2.89238 -2.02925,-4.32637 -3.82437,-8.02812 -7.36687,-7.47575 0.231,-1.311 0.48612,-2.75775 1.52787,-3.76512 2.96213,-2.86475 5.946,2.3205 7.34625,4.43625 -1.4215,-3.982 -4.073,-10.16963 -9.09237,-4.87275 -0.47313,-0.27288 -0.94613,-0.54563 -1.41875,-0.8185 2.46575,-3.19075 7.36262,-7.52213 10.42262,-0.60063 -0.56525,-6.35737 -4.53725,-6.10862 -8.40375,-3.219"
       style="fill:#1f1917;fill-opacity:1;fill-rule:evenodd;stroke:none;opacity:0.2"
       id="path10444"
       inkscape:connector-curvature="0" />
    <path
       d="m 349.1277,494.68075 c 8.94975,-1.58875 13.28275,1.00912 14.53362,6.2125 1.91613,-1.035 3.83175,-2.07075 5.74788,-3.106 0.4905,-3.74812 3.07737,-8.17875 5.89575,-10.75825 -5.02975,-1.07013 -10.0605,-1.45738 -15.0895,-1.31063 -8.35513,0.2445 -14.39825,-0.56337 -16.36475,-4.8455 -1.2165,-3.07062 -1.231,-7.53025 -0.157,-13.25512 1.25675,-6.69938 -6.55625,-9.06313 -12.1185,-3.672 l 0.972,1.24725 c 4.5255,-3.6425 8.60312,-0.77238 7.83775,3.443 -1.15825,-6.56288 -8.16338,-3.6705 -11.00763,0.45612 0.4015,0.35888 0.80288,0.71813 1.20438,1.07713 1.51575,-1.97463 3.314,-3.40763 5.45212,-3.391 3.3395,0.0252 4.28988,5.10062 2.94763,8.11425 0.0251,-2.40238 -0.12788,-4.61375 -1.29963,-5.83225 -1.08212,-1.125 -2.29712,-0.97275 -3.55012,-0.1585 -2.94488,1.9145 -3.775,3.50762 -4.46913,5.19812 5.73025,-1.6445 5.95913,4.73238 6.339,8.64213 0.24125,2.48625 1.2745,3.842 2.47638,4.25337 1.72912,0.59175 3.30025,1.84463 4.02837,3.8905 0.708,1.99 -0.47237,2.9395 -2.32087,3.8385 2.77512,1.13 5.8855,0.49925 8.94225,-0.0436"
       style="fill:#1f1917;fill-opacity:1;fill-rule:evenodd;stroke:none;opacity:0.2"
       id="path10446"
       inkscape:connector-curvature="0" />
    <path
       d="m 422.65945,475.11537 c 2.54337,9.01838 -0.57825,16.12026 -6.1745,22.98788 -2.64863,3.25063 -6.47613,6.29263 -12.19113,8.50425 -5.85562,2.266 -9.70225,5.32675 -10.01237,10.68487 -7.104,-12.21375 5.55875,-13.67462 15.99175,-20.22724 6.38112,-4.00788 13.47262,-11.44526 12.38625,-21.94975"
       style="fill:#1f1917;fill-opacity:1;fill-rule:evenodd;stroke:none;opacity:0.2"
       id="path10448"
       inkscape:connector-curvature="0" />
    <path
       d="m 413.58795,515.94175 c -2.44913,-3.34713 -4.70738,-5.50738 -2.806,-11.05725 -3.01175,2.87962 -8.26863,3.748 -11.12313,5.78687 -1.99137,1.42225 -3.28612,3.11775 -3.76625,4.96775 -0.518,1.9995 0.87388,2.56076 2.6405,3.28425 4.415,1.80888 7.66238,5.92125 8.9905,12.72013 1.57038,2.76375 3.00713,5.5275 4.5775,8.29138 0.95,1.60825 1.62213,2.95437 2.26925,4.08074 1.97113,3.43063 5.55838,4.46388 9.68138,3.41438 3.3955,-0.86388 5.998,-0.61763 6.97212,0.81962 2.13275,2.49838 1.48,6.30388 -0.46562,8.28525 -3.16588,3.22301 -6.48675,2.91013 -11.43888,-0.12225 -1.51862,-0.93012 -3.65875,-2.78887 -5.08812,-3.85087 -2.84388,-2.11363 -6.05088,-1.54775 -7.9905,0.75187 -1.355,1.80363 -2.30138,4.47525 -2.93213,6.27838 0.40075,-0.0964 2.13338,0.26825 2.53413,0.71687 0.28887,-1.54137 0.98187,-3.083 2.26562,-4.62437 1.68375,-1.57288 3.40413,-1.93788 5.52863,-0.59775 1.10275,0.69513 1.879,1.2625 3.7655,3.1875 -1.43325,-0.99463 -2.66675,-1.8035 -4.128,-2.46825 -5.30325,-2.41225 -6.37688,5.80287 -7.38563,9.17288 1.10975,-0.66651 2.2195,-0.462 3.32925,0.13899 -0.5935,-9.29587 7.86763,-7.19862 12.19788,-2.93675 -2.91825,-1.71774 -7.6475,-4.24375 -9.6545,-1.31737 -1.23163,1.795 -1.28088,3.83562 -0.97113,5.87225 2.16063,-1.723 4.17188,-2.0065 5.96513,-0.18488 1.27912,1.002 2.34062,2.37438 3.83775,3.00575 9.1045,3.55325 9.18312,-3.26087 14.79687,-4.4855 2.59963,-0.56649 5.28475,0.843 4.48538,3.65325 1.6845,-0.84225 3.06425,-2.03637 3.098,-5.68775 0.0734,-7.97175 -3.4665,-14.38412 -1.57225,-23.98362 2.44212,-1.008 3.21625,-2.45863 4.20812,-4.7165 -4.68787,0.68212 -22.58512,3.239 -24.73875,-2.49725 -0.74687,-1.98887 -0.99637,-2.77912 -0.83225,-4.8235 0.15488,-1.92338 -0.64025,-3.63512 -1.92225,-5.1765 4.5645,-0.101 10.6285,-0.83338 14.8975,-2.1635 8.29625,-2.58525 18.749,-8.21762 18.65688,-18.28912 -0.0638,-6.98888 -4.4755,-12.46401 -10.5775,-17.24526 l -3.285,2.72338 c 4.1825,3.06462 10.07937,8.81462 9.72787,14.29612 -0.48687,7.59263 -7.56925,12.02638 -14.70012,10.38188 -5.50563,-1.27125 -7.64613,-5.78337 -7.78538,-10.12775 -0.13112,-4.09075 2.306,-7.44275 5.31638,-9.93225 4.25125,-3.51613 8.05212,-6.58175 12.01287,-10.14488 2.9005,-2.61 4.39125,-4.81612 5.8025,-8.41925 2.58375,-0.71437 3.2375,-2.76587 2.05188,-5.17712 -1.683,-3.4225 -5.018,-4.23575 -8.54713,-3.96425 9.87238,9.53075 -3.00325,15.96325 -11.66662,22.80225 -4.79588,3.78525 -9.02875,8.45612 -8.954,14.96937 -0.084,5.8635 3.121,11.9225 11.42362,13.675 -6.182,3.62338 -16.12562,4.2385 -18.70187,0.71763"
       style="fill:#1f1917;fill-opacity:1;fill-rule:evenodd;stroke:none;opacity:0.2"
       id="path10450"
       inkscape:connector-curvature="0" />
    <path
       d="m 436.20132,480.40625 c -6.75425,-6.8545 -6.64125,-11.69788 -1.22075,-17.25313 -2.78325,0.0489 -7.41675,1.8365 -9.125,4.24913 -1.90812,2.69537 -0.095,4.37037 2.351,5.33737 0.68813,3.85925 2.3715,6.91613 4.9485,9.83763"
       style="fill:#1f1917;fill-opacity:1;fill-rule:evenodd;stroke:none;opacity:0.2"
       id="path10452"
       inkscape:connector-curvature="0" />
    <path
       d="m 395.27645,470.93037 c -1.89325,-0.0266 -3.78713,0.24488 -5.64413,0.88975 -3.68225,1.278 -7.24712,1.76275 -10.90875,1.306 -5.2385,-0.65375 -5.78312,-3.22087 -5.91525,-6.069 -1.4325,1.84363 -1.60087,3.72438 -1.07537,5.53113 0.65587,2.256 3.40225,3.46962 7.60537,3.14962 3.314,-0.25225 6.6525,-1.31775 10.294,-2.63162 2.36938,-0.85463 4.30338,-1.177 5.69625,-1.15863 -0.21937,2.05438 -2.38075,3.67513 -4.99925,3.67513 -1.42475,0 -2.71312,-0.48013 -3.62762,-1.24825 0.0782,1.43112 0.248,4.7455 0.332,6.17775 4.20875,-2.99988 9.30075,-1.19525 12.85512,-1.70825 2.51388,-0.3625 4.69763,-1.38188 5.73163,-3.24113 2.20037,-3.95675 -0.4015,-5.828 -3.28075,-7.194 2.51612,-0.35887 5.41487,-0.40175 6.5615,-2.1745 1.08775,-1.682 0.73237,-3.79975 -2.609,-4.42662 -1.873,-0.35188 -3.399,-0.0269 -4.90038,0.23775 -0.90637,1.20612 -1.738,2.48062 -2.91262,3.44975 -1.1225,0.83762 -2.22688,1.34937 -3.64388,1.41587 -1.53637,-0.0775 -2.52637,-0.72525 -2.68725,-2.34275 0.0755,-0.88975 0.30613,-1.4695 0.79263,-2.20862 -2.67063,0.111 -5.33238,0.21412 -7.99375,0.3175 0.53687,2.88712 1.02975,5.47125 1.22425,8.341 2.04125,-3.29038 8.10462,-4.80863 9.10525,-0.0879"
       style="fill:#1f1917;fill-opacity:1;fill-rule:evenodd;stroke:none;opacity:0.2"
       id="path10454"
       inkscape:connector-curvature="0" />
    <path
       d="m 418.99395,467.049 c 7.093,13.01775 -2.44063,24.67875 -10.10238,29.04337 -10.592,6.03363 -22.32737,7.85138 -17.005,21.04975 -10.9945,-8.52262 -6.08675,-17.61125 4.90425,-21.52487 11.08488,-3.94688 22.57625,-10.37125 23.05,-21.68713 0.0815,-1.95124 -0.25262,-4.47237 -0.84687,-6.88112"
       style="fill:#1f1917;fill-opacity:1;fill-rule:evenodd;stroke:none;opacity:0.2"
       id="path10456"
       inkscape:connector-curvature="0" />
    <path
       d="m 413.09507,479.32375 c 4.23563,-5.1605 4.84538,-10.63638 0.71363,-16.12638 3.69525,2.536 4.86525,6.40675 4.579,10.54425 -0.48825,7.05938 -6.84325,13.49438 -13.83138,16.85263 -9.27487,4.45712 -20.26275,5.88375 -20.68937,16.026 -0.18775,4.466 2.48037,7.40025 5.15837,10.11263 -6.1065,-1.699 -10.407,-6.67063 -10.54737,-14.25826 -0.097,-5.255 3.34062,-10.66325 13.33,-13.568 9.1435,-2.6585 17.33562,-4.76862 21.28712,-9.58287"
       style="fill:#1f1917;fill-opacity:1;fill-rule:evenodd;stroke:none;opacity:0.2"
       id="path10458"
       inkscape:connector-curvature="0" />
    <path
       d="m 406.69257,469.04212 c 3.88275,-1.15762 4.47563,-3.52812 4.60738,-6.45025 7.36512,6.84325 2.2975,17.23788 -5.7345,20.00838 -6.41763,2.2135 -11.00188,3.59325 -17.34475,5.58037 -6.27313,1.96475 -11.68625,6.83425 -11.67238,14.165 0.0125,6.4885 3.18538,10.21613 6.81625,13.08338 -6.96862,-1.51762 -12.68862,-5.09988 -12.72362,-15.05063 -0.0277,-7.83212 5.383,-13.78025 11.9625,-15.683 6.17,-1.784 12.58375,-3.19175 19.21887,-4.55912 5.33625,-1.09988 8.30163,-6.306 4.87025,-11.09413"
       style="fill:#1f1917;fill-opacity:1;fill-rule:evenodd;stroke:none;opacity:0.2"
       id="path10460"
       inkscape:connector-curvature="0" />
    <path
       d="m 393.4187,464.29662 c 0.14637,-0.88662 0.54212,-1.38587 1.22562,-2.07825 1.6965,-0.1055 3.62838,-0.25612 5.27675,-0.24875 -0.95425,1.25938 -1.624,2.3805 -3.27225,3.22088 -1.64837,0.8405 -3.4735,0.58225 -3.23012,-0.89388"
       style="fill:#1f1917;fill-opacity:1;fill-rule:evenodd;stroke:none;opacity:0.2"
       id="path10462"
       inkscape:connector-curvature="0" />
    <path
       d="m 351.04032,563.3745 c -0.30787,0.19912 -0.6445,0.40362 -0.98175,0.608 l 1.5335,-6.48875 c 3.8e-4,-0.001 7.5e-4,-0.002 0.001,-0.004 -1.602,0.0266 -2.18488,0.14562 -3.65388,0.78662 0.85988,-2.20287 1.79713,-3.55962 2.69813,-5.31887 -1.34388,-0.186 -1.806,-0.2345 -3.85188,0.47162 0.37738,-1.17312 1.12288,-3.1085 1.63138,-3.97975 L 343.20682,523.536 c -2.17025,0.0201 -3.965,-0.93125 -5.04737,-3.03813 -1.5205,-2.959 -3.808,-7.11775 -5.54775,-6.62987 l 1.69475,8.31087 4.64562,2.38675 c 2.711,13.32463 6.024,29.56925 8.73463,42.89388 l 5.05275,3.8555"
       style="fill:#1f1917;fill-opacity:1;fill-rule:evenodd;stroke:none;opacity:0.2"
       id="path10464"
       inkscape:connector-curvature="0" />
    <path
       d="m 396.38095,520.90937 c 0.19512,-0.3065 0.39012,-0.61262 0.585,-0.91912 3.71375,1.58525 6.86687,4.97162 9.02125,11.56925 -1.03013,-0.16725 -2.07288,-0.26925 -3.0905,-0.50137 -1.08963,-0.24838 -1.733,-0.85251 -1.587,-2.29675 0.42975,-4.26363 -1.563,-6.69688 -4.92875,-7.85201"
       style="fill:#1f1917;fill-opacity:1;fill-rule:evenodd;stroke:none;opacity:0.2"
       id="path10466"
       inkscape:connector-curvature="0" />
    <path
       d="m 393.93607,521.4055 c 0.43263,-0.67888 0.86525,-1.35788 1.29788,-2.03638 -2.63125,-1.126 -5.56938,-1.19475 -8.20663,-0.44112 -3.89737,1.11362 -7.90875,1.87125 -11.70962,3.27862 -8.78488,3.2535 -6.51325,12.32538 -3.16875,18.81526 2.52137,4.89337 7.02462,14.72387 0.78837,16.62137 -6.20437,1.09588 -7.35487,-9.17087 -12.2095,-12.532 -4.46312,-2.56 -9.297,2.33075 -11.55975,5.85037 l 2.21075,0.58538 c 1.49775,-2.08312 3.19075,-4.45363 5.66675,-4.4845 2.17625,-0.0269 4.021,2.12887 4.34413,4.094 -1.66863,-2.41725 -4.03125,-4.31538 -6.43575,-1.82025 -1.7855,1.85325 -3.01675,4.20025 -4.16088,6.631 l 1.75575,0.0651 c 1.10825,-3.13862 4.39088,-6.07 7.76363,-3.76225 1.13962,0.77925 2.9095,2.8535 4.65312,6.62288 -2.61,-3.20638 -6.27275,-9.404 -10.3365,-4.48588 -1.45737,1.76425 -1.72775,4.20625 -2.2755,6.436 2.0675,-1.28575 4.17713,-1.768 6.11113,0.26013 0.42875,0.44962 0.80287,0.96237 1.08775,1.51412 2.19362,4.24875 9.57725,7.83175 13.34937,4.389 1.07975,-0.98537 3.70813,-2.94837 5.66125,-3.02025 1.81938,-0.0674 2.74425,2.24325 2.33,3.68288 2.71213,-0.259 4.86463,-2.25213 5.78588,-8.061 0.23775,-5.467 0.47625,-10.93363 0.71437,-16.40025 1.9825,-0.6005 4.17963,-1.48075 5.002,-4.81425 -2.76475,1.153 -5.50412,0.9865 -7.29487,-0.36075 -1.433,-1.07788 -1.94675,-2.577 -1.29975,-3.85825 0.8395,-1.66213 3.965,-1.80425 7.5905,-0.66475 4.94325,1.55375 9.95037,1.33937 15.44425,0.44537 -0.145,-0.2725 -0.12863,-0.7745 -0.43413,-0.81675 -2.59787,-0.36 -4.70475,-0.47125 -5.67175,-1.30637 -1.07712,-0.92938 -1.26987,-1.94738 -1.08562,-3.048 0.725,-4.33275 -1.778,-6.37863 -5.70788,-7.3785"
       style="fill:#1f1917;fill-opacity:1;fill-rule:evenodd;stroke:none;opacity:0.2"
       id="path10468"
       inkscape:connector-curvature="0" />
    <path
       d="m 334.3957,483.3535 c 0.158,1.816 0.83662,2.56362 1.78162,3.8555 l 2.02813,10.05338 c -3.77463,-0.38976 -6.21138,1.78487 -8.13513,3.65074 l -3.0915,-16.06037 c 2.3865,0.15937 5.29625,-0.39225 7.41688,-1.49925"
       style="fill:#1f1917;fill-opacity:1;fill-rule:evenodd;stroke:none;opacity:0.2"
       id="path10470"
       inkscape:connector-curvature="0" />
    <path
       d="m 327.1347,485.7095 -0.5825,-3.07313 7.48175,-1.43575 0.40325,2.75913"
       style="fill:#1f1917;fill-opacity:1;fill-rule:evenodd;stroke:none;opacity:0.2"
       id="path10472"
       inkscape:connector-curvature="0" />
    <path
       d="m 392.02295,458.617 0.66375,2.52812 c 6.12275,-0.72487 12.62575,-0.68737 19.42537,-0.0588 0.58263,-1.461 1.16613,-2.91862 1.75113,-4.37887 -1.34613,-0.0684 -2.69425,-0.13575 -4.03863,-0.208 -0.67362,0.86712 -1.35675,2.09125 -2.5335,2.14412 -1.541,0.0694 -2.37612,-1.2675 -3.31262,-2.39137 -0.93788,-0.0139 -1.87338,-0.028 -2.80875,-0.0433 -0.83763,1.3535 -1.44788,2.46225 -3.14363,2.43812 -1.687,-0.0241 -2.34175,-1.3425 -3.09337,-2.75487 l -3.55038,0.23062"
       style="fill:#1f1917;fill-opacity:1;fill-rule:evenodd;stroke:none;opacity:0.2"
       id="path10474"
       inkscape:connector-curvature="0" />
    <path
       d="m 328.2952,464.52012 c 0.83337,-3.7e-4 1.47012,0.0936 1.9895,0.24375 l -0.75225,-1.03987 2.93362,-2.53913 c -1.28662,-0.49825 -2.683,-0.77312 -4.1425,-0.77312 -6.3475,0 -11.52287,5.17562 -11.52287,11.52275 0,6.34925 5.17537,11.525 11.52287,11.525 2.07988,0 4.03225,-0.55637 5.71963,-1.5265 -0.0858,-1.84675 0.002,-3.82038 -0.99463,-4.29725 -1.28737,1.03638 -3.02387,1.716 -4.72462,1.716 -4.08513,0 -7.4155,-3.33075 -7.4155,-7.41687 0,-4.07513 3.31475,-7.39913 7.38675,-7.41476"
       style="fill:#1f1917;fill-opacity:1;fill-rule:evenodd;stroke:none;opacity:0.2"
       id="path10476"
       inkscape:connector-curvature="0" />
  </g>
</svg>
